<svg xmlns="http://www.w3.org/2000/svg" width="22.401" height="22" viewBox="0 0 22.401 22">
  <g id="dot" transform="translate(0 -2.471)">
    <g id="Group_14" data-name="Group 14" transform="translate(0 2.471)">
      <path id="Path_15" data-name="Path 15" d="M3.469,2.471A2.619,2.619,0,1,0,6.089,5.09,2.622,2.622,0,0,0,3.469,2.471Z" transform="translate(-0.781 -2.471)" fill="#e5989b"/>
      <path id="Path_16" data-name="Path 16" d="M107.988,2.471a2.619,2.619,0,1,0,2.62,2.619A2.622,2.622,0,0,0,107.988,2.471Z" transform="translate(-96.822 -2.471)" fill="#e5989b"/>
      <path id="Path_17" data-name="Path 17" d="M214.2,7.71a2.619,2.619,0,1,0-2.62-2.619A2.623,2.623,0,0,0,214.2,7.71Z" transform="translate(-194.417 -2.471)" fill="#e5989b"/>
      <path id="Path_18" data-name="Path 18" d="M2.62,111.188A2.62,2.62,0,1,0,0,108.569,2.622,2.622,0,0,0,2.62,111.188Z" transform="translate(0 -97.556)" fill="#e5989b"/>
      <path id="Path_19" data-name="Path 19" d="M107.145,111.188a2.62,2.62,0,1,0-2.619-2.619A2.622,2.622,0,0,0,107.145,111.188Z" transform="translate(-96.047 -97.556)" fill="#e5989b"/>
      <path id="Path_20" data-name="Path 20" d="M213.352,111.188a2.62,2.62,0,1,0-2.62-2.619A2.622,2.622,0,0,0,213.352,111.188Z" transform="translate(-193.639 -97.556)" fill="#e5989b"/>
      <path id="Path_21" data-name="Path 21" d="M3.359,209.108a2.619,2.619,0,1,0,2.619,2.619A2.623,2.623,0,0,0,3.359,209.108Z" transform="translate(-0.679 -192.347)" fill="#e5989b"/>
      <path id="Path_22" data-name="Path 22" d="M107.884,209.108a2.619,2.619,0,1,0,2.619,2.619A2.623,2.623,0,0,0,107.884,209.108Z" transform="translate(-96.726 -192.347)" fill="#e5989b"/>
      <path id="Path_23" data-name="Path 23" d="M214.1,209.108a2.619,2.619,0,1,0,2.62,2.619A2.622,2.622,0,0,0,214.1,209.108Z" transform="translate(-194.323 -192.347)" fill="#e5989b"/>
    </g>
  </g>
</svg>
